<svg width="13" height="12" viewBox="0 0 13 12" fill="none" xmlns="http://www.w3.org/2000/svg">
<path d="M9.8125 4.33654C9.6875 4.21154 9.625 4.063 9.625 3.89091C9.625 3.71925 9.6875 3.57091 9.8125 3.44591L10.375 2.88341H7.78125C7.60417 2.88341 7.45583 2.82341 7.33625 2.70341C7.21625 2.58383 7.15625 2.4355 7.15625 2.25841C7.15625 2.08133 7.21625 1.933 7.33625 1.81341C7.45583 1.69341 7.60417 1.63341 7.78125 1.63341H10.375L9.8125 1.07091C9.6875 0.945913 9.62771 0.80008 9.63313 0.633413C9.63813 0.466747 9.69792 0.320913 9.8125 0.195913C9.9375 0.0709134 10.086 0.00570513 10.2581 0.000288462C10.4298 -0.00471154 10.5781 0.0552884 10.7031 0.180288L12.3438 1.82091C12.4062 1.88341 12.4504 1.95112 12.4762 2.02404C12.5025 2.09696 12.5156 2.17508 12.5156 2.25841C12.5156 2.34175 12.5025 2.41987 12.4762 2.49279C12.4504 2.56571 12.4062 2.63341 12.3438 2.69591L10.6875 4.35216C10.5625 4.47716 10.4167 4.53716 10.25 4.53216C10.0833 4.52675 9.9375 4.46154 9.8125 4.33654ZM11.4688 11.6022C10.125 11.6022 8.81521 11.3026 7.53938 10.7034C6.26312 10.1047 5.13292 9.313 4.14875 8.32841C3.16417 7.34425 2.3725 6.21404 1.77375 4.93779C1.17458 3.66195 0.875 2.35216 0.875 1.00841C0.875 0.820914 0.9375 0.664663 1.0625 0.539663C1.1875 0.414663 1.34375 0.352163 1.53125 0.352163H4.0625C4.20833 0.352163 4.33854 0.399038 4.45313 0.492788C4.56771 0.586538 4.63542 0.70633 4.65625 0.852163L5.0625 3.03966C5.08333 3.1855 5.08083 3.3182 5.055 3.43779C5.02875 3.55779 4.96875 3.66466 4.875 3.75841L3.375 5.28966C3.8125 6.03966 4.35938 6.74279 5.01562 7.39904C5.67188 8.05529 6.39583 8.623 7.1875 9.10216L8.65625 7.63341C8.75 7.53966 8.8725 7.46925 9.02375 7.42216C9.17458 7.3755 9.32292 7.36258 9.46875 7.38341L11.625 7.82091C11.7708 7.85216 11.8906 7.92237 11.9844 8.03154C12.0781 8.14112 12.125 8.26883 12.125 8.41466V10.9459C12.125 11.1334 12.0625 11.2897 11.9375 11.4147C11.8125 11.5397 11.6563 11.6022 11.4688 11.6022Z" fill="white"/>
</svg>
