<svg width="12" height="14" viewBox="0 0 12 14" fill="none" xmlns="http://www.w3.org/2000/svg">
<path d="M11.52 0.477051H0.48C0.2145 0.477051 0 0.709426 0 0.997051V12.9571C0 13.2447 0.2145 13.4771 0.48 13.4771H11.52C11.7855 13.4771 12 13.2447 12 12.9571V0.997051C12 0.709426 11.7855 0.477051 11.52 0.477051ZM11.04 12.437H8.2785V8.4428H9.8385L10.0725 6.48143H8.2785V5.22855C8.2785 4.6598 8.424 4.27305 9.1755 4.27305H10.134V2.51805C9.9675 2.49368 9.399 2.44005 8.736 2.44005C7.353 2.44005 6.4065 3.35493 6.4065 5.03355V6.4798H4.8435V8.44117H6.408V12.437H0.96V1.51705H11.04V12.437Z" fill="white"/>
</svg>
