<svg width="16" height="14" viewBox="0 0 16 14" fill="none" xmlns="http://www.w3.org/2000/svg">
<path d="M1.6 13.4771C1.16 13.4771 0.783467 13.3181 0.4704 13.0001C0.1568 12.6816 0 12.2989 0 11.8521V2.10205C0 1.65518 0.1568 1.27276 0.4704 0.954801C0.783467 0.636301 1.16 0.477051 1.6 0.477051H14.4C14.84 0.477051 15.2168 0.636301 15.5304 0.954801C15.8435 1.27276 16 1.65518 16 2.10205V11.8521C16 12.2989 15.8435 12.6816 15.5304 13.0001C15.2168 13.3181 14.84 13.4771 14.4 13.4771H1.6ZM8 7.64736C8.06667 7.64736 8.13653 7.63707 8.2096 7.61649C8.2832 7.59645 8.35333 7.56611 8.42 7.52549L14.08 3.93018C14.1867 3.86247 14.2667 3.77797 14.32 3.67668C14.3733 3.57484 14.4 3.46299 14.4 3.34111C14.4 3.07028 14.2867 2.86716 14.06 2.73174C13.8333 2.59632 13.6 2.60309 13.36 2.75205L8 6.16455L2.64 2.75205C2.4 2.60309 2.16667 2.59957 1.94 2.74149C1.71333 2.88395 1.6 3.08382 1.6 3.34111C1.6 3.47653 1.62667 3.59488 1.68 3.69618C1.73333 3.79801 1.81333 3.87601 1.92 3.93018L7.58 7.52549C7.64667 7.56611 7.7168 7.59645 7.7904 7.61649C7.86347 7.63707 7.93333 7.64736 8 7.64736Z" fill="white"/>
</svg>
